# xmcd
#
# Track frame offsets:
#	150
#	11025
#	22385
#	35690
#	49047
#	65380
#	78115
#	98448
#	111743
#	128315
#	142410
#	154321
#	167699
#	182447
#	194144
#	204754
#	220193
#
# Disc length: 3089 seconds
#
# Revision: 0
# Processed by: cddbd v1.5.1PL2 Copyright (c) Steve Scherf et al.
# Submitted via: dBpowerAMP V4.0
#
DISCID=f00c0f11
DTITLE=Various Artist - Nashville sound
DYEAR=2004
DGENRE=Country
TTITLE0=Go west
TTITLE1=River's love
TTITLE2=Georgia pines are calling
TTITLE3=Sing for me señorita
TTITLE4=Doing time
TTITLE5=Rocky mountain memories
TTITLE6=Highway Hilton
TTITLE7=Driving across the border
TTITLE8=A new beginning
TTITLE9=Nashville highway
TTITLE10=Dixie lady
TTITLE11=Keep on rolling
TTITLE12=Honky tonk man
TTITLE13=With a woman like you
TTITLE14=A buddy of mine
TTITLE15=Memories of fate
TTITLE16=Girl,I love you
EXTD=
EXTT0=
EXTT1=
EXTT2=
EXTT3=
EXTT4=
EXTT5=
EXTT6=
EXTT7=
EXTT8=
EXTT9=
EXTT10=
EXTT11=
EXTT12=
EXTT13=
EXTT14=
EXTT15=
EXTT16=
PLAYORDER=
